<?xml version="1.0" encoding="utf-8"?>
<!-- Generator: Adobe Illustrator 15.1.0, SVG Export Plug-In . SVG Version: 6.00 Build 0)  -->
<!DOCTYPE svg PUBLIC "-//W3C//DTD SVG 1.1//EN" "http://www.w3.org/Graphics/SVG/1.1/DTD/svg11.dtd">
<svg version="1.1" id="Layer_1" xmlns="http://www.w3.org/2000/svg" xmlns:xlink="http://www.w3.org/1999/xlink" x="0px" y="0px"
	 width="253.997px" height="90px" viewBox="0 0 253.997 90" enable-background="new 0 0 253.997 90" xml:space="preserve">
<path fill="#9CE038" d="M45,12c18.196,0,33,14.803,33,33C77.999,63.197,63.196,78,45,78S12,63.197,12,45C12,26.803,26.803,12,45,12
	 M45,0C20.147,0,0,20.147,0,45S20.147,90,45,90s45-20.148,45-45.001S69.852,0,45,0L45,0z"/>
<g>
	<path fill="#9CE038" d="M120.874,57.557h14.146v7.072h-22.999V26.462h8.854V57.557z"/>
	<path fill="#9CE038" d="M174.783,45.533c0,2.759-0.477,5.327-1.428,7.702s-2.291,4.439-4.02,6.195
		c-1.73,1.754-3.813,3.129-6.248,4.125c-2.438,0.996-5.139,1.494-8.107,1.494s-5.676-0.498-8.121-1.494s-4.535-2.371-6.273-4.125
		c-1.738-1.756-3.082-3.82-4.033-6.195c-0.953-2.375-1.428-4.943-1.428-7.702s0.475-5.326,1.428-7.701
		c0.951-2.375,2.295-4.436,4.033-6.182c1.738-1.746,3.828-3.117,6.273-4.113s5.152-1.493,8.121-1.493s5.67,0.502,8.107,1.506
		c2.436,1.005,4.518,2.38,6.248,4.126c1.729,1.747,3.068,3.808,4.02,6.183S174.783,42.791,174.783,45.533z M165.721,45.533
		c0-1.886-0.246-3.584-0.734-5.095s-1.191-2.79-2.109-3.838c-0.916-1.048-2.039-1.851-3.365-2.41
		c-1.328-0.559-2.838-0.838-4.531-0.838c-1.713,0-3.236,0.279-4.57,0.838c-1.338,0.559-2.465,1.362-3.381,2.41
		s-1.619,2.327-2.107,3.838c-0.49,1.511-0.734,3.209-0.734,5.095c0,1.903,0.244,3.61,0.734,5.12
		c0.488,1.512,1.191,2.791,2.107,3.838c0.916,1.049,2.043,1.848,3.381,2.398c1.334,0.549,2.857,0.824,4.57,0.824
		c1.693,0,3.203-0.275,4.531-0.824c1.326-0.551,2.449-1.35,3.365-2.398c0.918-1.047,1.621-2.326,2.109-3.838
		C165.475,49.143,165.721,47.436,165.721,45.533z"/>
	<path fill="#9CE038" d="M196.996,58.237c1.223,0,2.307-0.104,3.248-0.314c0.943-0.209,1.834-0.488,2.672-0.838v-5.789h-3.771
		c-0.559,0-0.994-0.148-1.309-0.445c-0.316-0.297-0.473-0.672-0.473-1.127v-4.871h13.57v16.109
		c-0.979,0.717-1.996,1.332-3.053,1.848s-2.184,0.938-3.379,1.27s-2.471,0.576-3.824,0.734c-1.354,0.156-2.809,0.236-4.361,0.236
		c-2.795,0-5.379-0.494-7.754-1.48s-4.432-2.35-6.17-4.088c-1.736-1.736-3.1-3.797-4.086-6.182c-0.986-2.383-1.48-4.973-1.48-7.767
		c0-2.846,0.471-5.462,1.414-7.846c0.943-2.383,2.293-4.44,4.047-6.169c1.756-1.729,3.879-3.073,6.367-4.034s5.27-1.441,8.342-1.441
		c1.59,0,3.082,0.131,4.48,0.393c1.396,0.262,2.686,0.62,3.863,1.074c1.18,0.455,2.258,0.996,3.234,1.625
		c0.979,0.628,1.852,1.31,2.621,2.043l-2.568,3.903c-0.244,0.367-0.537,0.655-0.877,0.864s-0.711,0.314-1.113,0.314
		c-0.523,0-1.064-0.174-1.623-0.524c-0.699-0.419-1.359-0.781-1.979-1.087c-0.621-0.306-1.254-0.555-1.9-0.747
		c-0.646-0.191-1.326-0.332-2.043-0.418c-0.715-0.087-1.52-0.131-2.408-0.131c-1.66,0-3.154,0.292-4.48,0.877
		c-1.328,0.585-2.457,1.411-3.393,2.475c-0.934,1.066-1.654,2.345-2.162,3.838c-0.506,1.493-0.758,3.157-0.758,4.99
		c0,2.026,0.279,3.825,0.838,5.396c0.559,1.572,1.33,2.9,2.318,3.982c0.986,1.084,2.156,1.908,3.51,2.475
		C193.91,57.954,195.391,58.237,196.996,58.237z"/>
	<path fill="#9CE038" d="M253.997,45.533c0,2.759-0.477,5.327-1.428,7.702c-0.953,2.375-2.293,4.439-4.021,6.195
		c-1.729,1.754-3.813,3.129-6.248,4.125s-5.139,1.494-8.107,1.494s-5.676-0.498-8.121-1.494c-2.442-0.996-4.534-2.371-6.272-4.125
		c-1.736-1.756-3.082-3.82-4.033-6.195c-0.953-2.375-1.428-4.943-1.428-7.702s0.475-5.326,1.428-7.701
		c0.951-2.375,2.297-4.436,4.033-6.182c1.738-1.746,3.83-3.117,6.272-4.113c2.445-0.996,5.152-1.493,8.121-1.493
		s5.672,0.502,8.107,1.506c2.436,1.005,4.52,2.38,6.248,4.126c1.729,1.747,3.068,3.808,4.021,6.183
		C253.521,40.233,253.997,42.791,253.997,45.533z M244.933,45.533c0-1.886-0.244-3.584-0.732-5.095
		c-0.49-1.511-1.193-2.79-2.109-3.838c-0.918-1.048-2.039-1.851-3.367-2.41c-1.326-0.559-2.838-0.838-4.531-0.838
		c-1.711,0-3.234,0.279-4.57,0.838s-2.463,1.362-3.379,2.41c-0.917,1.048-1.62,2.327-2.108,3.838
		c-0.49,1.511-0.734,3.209-0.734,5.095c0,1.903,0.244,3.61,0.734,5.12c0.488,1.512,1.191,2.791,2.108,3.838
		c0.916,1.049,2.043,1.848,3.379,2.398c1.336,0.549,2.859,0.824,4.57,0.824c1.693,0,3.205-0.275,4.531-0.824
		c1.328-0.551,2.449-1.35,3.367-2.398c0.916-1.047,1.619-2.326,2.109-3.838C244.688,49.143,244.933,47.436,244.933,45.533z"/>
</g>
</svg>
